Coordinates
version=1
nRows=23
nColumns=34
inDegrees=no

Units are S.I. units (second, meters, Newtons, ...)
If the header above contains a line with 'inDegrees', this indicates whether rotational values are in degrees (yes) or radians (no).

endheader
time	pelvis_tilt	pelvis_list	pelvis_rotation	pelvis_tx	pelvis_ty	pelvis_tz	hip_flexion_r	hip_adduction_r	hip_rotation_r	knee_angle_r	ankle_angle_r	subtalar_angle_r	mtp_angle_r	hip_flexion_l	hip_adduction_l	hip_rotation_l	knee_angle_l	ankle_angle_l	subtalar_angle_l	mtp_angle_l	lumbar_extension	lumbar_bending	lumbar_rotation	arm_flex_r	arm_add_r	arm_rot_r	elbow_flex_r	pro_sup_r	arm_flex_l	arm_add_l	arm_rot_l	elbow_flex_l	pro_sup_l
0	-0.0932556	0.0417009	-0.010103	-1.12742	1.26845	-0.59351	0.126635	-0.0911736	-0.156452	0.21389	0.374322	0.289152	0	0.0572681	0.0320452	0.0592635	0.0660781	0.208886	-0.0359889	0	-0.0291242	-0.043218	-0.0417378	0.0136074	-0.130284	0.163047	0.580434	2.09	0.00869309	-0.134837	0.146619	0.55015	2.09
0.01	-0.0936265	0.0430315	-0.0107045	-1.12731	1.26838	-0.593467	0.130446	-0.0926838	-0.153721	0.220308	0.376565	0.287555	0	0.0579628	0.0335444	0.0590027	0.0670269	0.208968	-0.0360982	0	-0.0303942	-0.0446792	-0.0414667	0.013382	-0.130392	0.161206	0.582896	2.09	0.00794778	-0.136086	0.146094	0.552024	2.09
0.02	-0.0940635	0.0446929	-0.011598	-1.1272	1.26833	-0.593416	0.134474	-0.0946658	-0.151594	0.226965	0.378933	0.28729	0	0.0589692	0.0353235	0.0577107	0.0683774	0.209483	-0.0354464	0	-0.0318425	-0.0465356	-0.0409686	0.0129642	-0.130975	0.160196	0.58617	2.09	0.00720317	-0.136979	0.144051	0.553492	2.09
0.03	-0.0947126	0.046614	-0.0122284	-1.12711	1.26826	-0.593411	0.139041	-0.0970992	-0.150037	0.234252	0.38162	0.287741	0	0.0607161	0.0373635	0.0556609	0.0705731	0.210718	-0.0330817	0	-0.0333326	-0.0487637	-0.0405068	0.0122288	-0.132259	0.160913	0.5902	2.09	0.00658358	-0.137631	0.140674	0.554553	2.09
0.04	-0.0958655	0.0485315	-0.0123224	-1.12705	1.26814	-0.593476	0.144272	-0.0996058	-0.148528	0.241849	0.384572	0.287785	0	0.0636523	0.0394445	0.0529362	0.0738745	0.212872	-0.0285882	0	-0.0345739	-0.0509938	-0.0403543	0.011135	-0.133946	0.162272	0.594812	2.09	0.00610172	-0.138018	0.135898	0.554895	2.09
0.05	-0.0972793	0.050179	-0.0121554	-1.12701	1.26799	-0.593559	0.149554	-0.101801	-0.147196	0.249054	0.387475	0.287638	0	0.0672972	0.0412223	0.0492271	0.0779307	0.215988	-0.022355	0	-0.0358444	-0.052813	-0.0407785	0.0100829	-0.135435	0.16238	0.599585	2.09	0.00564301	-0.137805	0.128464	0.553904	2.09
0.06	-0.0983537	0.0516053	-0.0118764	-1.12698	1.26786	-0.593591	0.154289	-0.10373	-0.146469	0.255925	0.390282	0.287844	0	0.0706735	0.0426508	0.0449924	0.082177	0.219688	-0.0149788	0	-0.0377851	-0.0543421	-0.0417857	0.00933263	-0.136523	0.161125	0.604244	2.09	0.00499478	-0.137387	0.119004	0.552249	2.09
0.07	-0.0989116	0.0530207	-0.0115278	-1.12696	1.26775	-0.593559	0.158386	-0.105664	-0.146404	0.262653	0.393039	0.288426	0	0.0734026	0.0439229	0.0410024	0.0862968	0.223454	-0.00678637	0	-0.0405699	-0.0559513	-0.0429413	0.0086411	-0.13766	0.159786	0.608928	2.09	0.00395613	-0.137681	0.110322	0.551099	2.09
0.08	-0.0993711	0.0543235	-0.0111987	-1.12693	1.26767	-0.593519	0.16195	-0.107513	-0.146837	0.268642	0.395491	0.289331	0	0.0760128	0.0449911	0.0369773	0.0904225	0.22733	0.00211163	0	-0.0437061	-0.0574975	-0.0440092	0.00775136	-0.139185	0.158332	0.613667	2.09	0.00251305	-0.138492	0.102589	0.550175	2.09
0.09	-0.100113	0.0553862	-0.0108716	-1.12689	1.26758	-0.593517	0.165156	-0.109015	-0.146999	0.273453	0.397488	0.289973	0	0.0790223	0.0458336	0.0320084	0.0947502	0.231699	0.0114656	0	-0.0467158	-0.0586802	-0.0451808	0.00656969	-0.14118	0.156607	0.61853	2.09	0.000610348	-0.138866	0.0931817	0.548921	2.09
0.1	-0.100973	0.056479	-0.0105637	-1.1268	1.26746	-0.593532	0.168361	-0.110327	-0.145874	0.278021	0.399308	0.289394	0	0.0820237	0.0467668	0.0261276	0.0989286	0.236313	0.0207842	0	-0.0497335	-0.0597501	-0.0464349	0.00497479	-0.14372	0.155512	0.623776	2.09	-0.00214376	-0.139113	0.0822627	0.548225	2.09
0.11	-0.10168	0.0578731	-0.0103685	-1.12665	1.26733	-0.593502	0.171554	-0.111749	-0.143622	0.282868	0.401138	0.287547	0	0.084486	0.047948	0.0204963	0.102557	0.240486	0.0298193	0	-0.0530307	-0.061212	-0.0475092	0.00295261	-0.146429	0.154405	0.629035	2.09	-0.00599665	-0.140328	0.0723008	0.548756	2.09
0.12	-0.102581	0.0592569	-0.0103088	-1.1265	1.26717	-0.593393	0.174711	-0.112998	-0.141218	0.287267	0.40274	0.285074	0	0.0870258	0.0489245	0.0156802	0.106004	0.244222	0.0387187	0	-0.0562428	-0.0628809	-0.048293	0.000603584	-0.148688	0.15136	0.633542	2.09	-0.0104257	-0.141916	0.0619817	0.549021	2.09
0.13	-0.104169	0.0602399	-0.0103863	-1.12633	1.26697	-0.593233	0.178275	-0.113674	-0.138695	0.291048	0.40397	0.282213	0	0.0904913	0.0493696	0.010758	0.109826	0.248191	0.0474259	0	-0.0588401	-0.0640685	-0.0488795	-0.00210248	-0.150406	0.14605	0.637304	2.09	-0.0148576	-0.14243	0.0483233	0.547367	2.09
0.14	-0.10599	0.0608982	-0.0105154	-1.1261	1.26677	-0.593077	0.181809	-0.114008	-0.136195	0.294461	0.405066	0.27978	0	0.0943491	0.0495354	0.00513613	0.114063	0.252652	0.0557273	0	-0.0612767	-0.0645533	-0.0496437	-0.00511697	-0.151973	0.139534	0.640628	2.09	-0.0195526	-0.142454	0.0334922	0.544376	2.09
0.15	-0.107469	0.0615242	-0.0104623	-1.1258	1.2666	-0.592962	0.184528	-0.114539	-0.134826	0.29731	0.406339	0.278848	0	0.0979825	0.0497571	-0.000181987	0.118725	0.257245	0.0638411	0	-0.064195	-0.0648403	-0.0509024	-0.00826867	-0.153915	0.133127	0.643345	2.09	-0.0248559	-0.143329	0.0209212	0.541179	2.09
0.16	-0.109262	0.0623706	-0.0102078	-1.12552	1.26639	-0.592883	0.187697	-0.115448	-0.134123	0.300395	0.407877	0.278319	0	0.102324	0.0502246	-0.00461801	0.124033	0.261772	0.0721132	0	-0.0670614	-0.0655087	-0.0523021	-0.0116938	-0.156507	0.127694	0.645491	2.09	-0.0305266	-0.144635	0.00929617	0.537741	2.09
0.17	-0.112026	0.0635209	-0.0100636	-1.1253	1.26608	-0.592792	0.192569	-0.116503	-0.132282	0.304437	0.409495	0.276576	0	0.108157	0.0509611	-0.00950844	0.130034	0.266567	0.0807016	0	-0.0693297	-0.0665562	-0.0533166	-0.0156226	-0.159345	0.122367	0.647475	2.09	-0.0366212	-0.145958	-0.0019928	0.53438	2.09
0.18	-0.115073	0.0645741	-0.0102067	-1.12507	1.26575	-0.592633	0.197713	-0.117242	-0.129746	0.308251	0.410913	0.274632	0	0.11469	0.0514443	-0.0159872	0.136802	0.272039	0.0901487	0	-0.0716873	-0.067338	-0.0539256	-0.0199387	-0.161927	0.115547	0.649277	2.09	-0.0434536	-0.147887	-0.0106926	0.531681	2.09
0.19	-0.117746	0.0650056	-0.0105201	-1.12478	1.26546	-0.592397	0.201877	-0.117317	-0.128112	0.311097	0.412137	0.273778	0	0.121247	0.0510227	-0.0232681	0.144598	0.278207	0.101024	0	-0.0746819	-0.0673465	-0.0541393	-0.0245699	-0.164343	0.107289	0.650611	2.09	-0.0505022	-0.149675	-0.0193221	0.528697	2.09
0.2	-0.121058	0.0639945	-0.010957	-1.12453	1.26514	-0.592023	0.206794	-0.115595	-0.126452	0.31401	0.412939	0.272103	0	0.130858	0.0467996	-0.0495588	0.157402	0.295329	0.143406	0	-0.0772587	-0.0659917	-0.0536986	-0.0296846	-0.166651	0.0983051	0.65165	2.09	-0.0572606	-0.149744	-0.0345663	0.524835	2.09
0.21	-0.123791	0.0633758	-0.0113857	-1.12424	1.26487	-0.591792	0.211089	-0.114571	-0.125018	0.317043	0.41399	0.27086	0	0.137485	0.045667	-0.0505428	0.165191	0.298784	0.144951	0	-0.0807234	-0.0648739	-0.0528739	-0.0351905	-0.169748	0.091079	0.652533	2.09	-0.0635333	-0.149334	-0.0498373	0.519687	2.09
0.22	-0.126884	0.06285	-0.011577	-1.12394	1.26454	-0.591646	0.215667	-0.113674	-0.123329	0.319982	0.414995	0.269188	0	0.144812	0.044574	-0.0537085	0.173553	0.303521	0.149155	0	-0.0841296	-0.0637188	-0.0518587	-0.0415241	-0.172945	0.0823937	0.653856	2.09	-0.0703622	-0.149364	-0.0631267	0.515458	2.09
